<svg width="20" height="21" viewBox="0 0 20 21" fill="none" xmlns="http://www.w3.org/2000/svg">
<path d="M5.00008 5.50008L8.75008 9.25008M5.00008 5.50008H2.50008L1.66675 3.00008L2.50008 2.16675L5.00008 3.00008V5.50008ZM16.0492 2.78426L13.8596 4.97394C13.5295 5.30395 13.3645 5.46896 13.3027 5.65923C13.2483 5.8266 13.2483 6.00689 13.3027 6.17426C13.3645 6.36454 13.5295 6.52954 13.8596 6.85956L14.0573 7.05727C14.3873 7.38729 14.5523 7.55229 14.7426 7.61412C14.9099 7.6685 15.0902 7.6685 15.2576 7.61412C15.4479 7.55229 15.6129 7.38729 15.9429 7.05727L17.9912 5.00901C18.2118 5.54582 18.3334 6.13374 18.3334 6.75008C18.3334 9.28139 16.2814 11.3334 13.7501 11.3334C13.4449 11.3334 13.1467 11.3036 12.8582 11.2467C12.4531 11.1668 12.2505 11.1268 12.1277 11.1391C11.9972 11.1521 11.9328 11.1717 11.8172 11.2336C11.7084 11.2918 11.5992 11.4009 11.3809 11.6192L5.41675 17.5834C4.72639 18.2738 3.6071 18.2738 2.91675 17.5834C2.22639 16.893 2.22639 15.7738 2.91675 15.0834L8.88094 9.11922C9.09923 8.90094 9.20837 8.79179 9.2666 8.68299C9.3285 8.56731 9.34807 8.50297 9.36108 8.37242C9.37332 8.24963 9.33337 8.04707 9.25347 7.64195C9.19657 7.35346 9.16675 7.05526 9.16675 6.75008C9.16675 4.21878 11.2188 2.16675 13.7501 2.16675C14.588 2.16675 15.3734 2.3916 16.0492 2.78426ZM10.0001 13L14.5834 17.5833C15.2738 18.2737 16.3931 18.2737 17.0834 17.5833C17.7738 16.893 17.7738 15.7737 17.0834 15.0833L13.3128 11.3128C13.0459 11.2876 12.7857 11.2394 12.5341 11.1704C12.2099 11.0814 11.8542 11.146 11.6165 11.3837L10.0001 13Z" stroke="white" stroke-width="2" stroke-linecap="round" stroke-linejoin="round"/>
</svg>
